<svg width="800" height="400" viewBox="0 0 800 400" xmlns="http://www.w3.org/2000/svg">

  <!-- Outer glow rings (subtle, transparent) -->
  <polygon points="400,30 570,128 570,272 400,370 230,272 230,128"
    fill="none" stroke="#D980FA" stroke-width="1.5" opacity="0.3"/>
  <polygon points="400,52 552,143 552,257 400,348 248,257 248,143"
    fill="none" stroke="#C355F5" stroke-width="1" opacity="0.2"/>

  <!-- Main hexagon - semi-transparent dark fill -->
  <polygon points="400,60 548,150 548,250 400,340 252,250 252,150"
    fill="#1A0A2E" fill-opacity="0.85" stroke="#9B30D9" stroke-width="2"/>

  <!-- Inner hex ring -->
  <polygon points="400,78 534,162 534,238 400,322 266,238 266,162"
    fill="none" stroke="#7B2FBE" stroke-width="0.8" opacity="0.4"/>

  <!-- Corner accent dots -->
  <circle cx="400" cy="60"  r="5" fill="#D980FA" opacity="0.9"/>
  <circle cx="548" cy="150" r="5" fill="#C355F5" opacity="0.9"/>
  <circle cx="548" cy="250" r="5" fill="#D980FA" opacity="0.9"/>
  <circle cx="400" cy="340" r="5" fill="#C355F5" opacity="0.9"/>
  <circle cx="252" cy="250" r="5" fill="#D980FA" opacity="0.9"/>
  <circle cx="252" cy="150" r="5" fill="#C355F5" opacity="0.9"/>

  <!-- Diagonal connector lines from dots -->
  <line x1="400" y1="60"  x2="548" y2="150" stroke="#D980FA" stroke-width="0.5" opacity="0.2"/>
  <line x1="548" y1="150" x2="548" y2="250" stroke="#C355F5" stroke-width="0.5" opacity="0.2"/>
  <line x1="548" y1="250" x2="400" y2="340" stroke="#D980FA" stroke-width="0.5" opacity="0.2"/>
  <line x1="400" y1="340" x2="252" y2="250" stroke="#C355F5" stroke-width="0.5" opacity="0.2"/>
  <line x1="252" y1="250" x2="252" y2="150" stroke="#D980FA" stroke-width="0.5" opacity="0.2"/>
  <line x1="252" y1="150" x2="400" y2="60"  stroke="#C355F5" stroke-width="0.5" opacity="0.2"/>

  <!-- S letterform -->
  <!-- Top bar -->
  <rect x="330" y="118" width="130" height="30" rx="15" fill="#D980FA"/>
  <!-- Top-left leg -->
  <rect x="330" y="118" width="30" height="62" fill="#D980FA"/>
  <!-- Round top-left corner cap -->
  <rect x="330" y="118" width="130" height="30" rx="15" fill="#D980FA"/>
  <!-- Middle bar -->
  <rect x="330" y="180" width="130" height="28" rx="5" fill="#C355F5"/>
  <!-- Bottom-right leg -->
  <rect x="430" y="180" width="30" height="62" fill="#C355F5"/>
  <!-- Bottom bar -->
  <rect x="330" y="242" width="130" height="30" rx="15" fill="#9B30D9"/>

  <!-- Name text -->
  <text x="400" y="385"
    font-family="'Arial Black', 'Helvetica Neue', sans-serif"
    font-size="20"
    font-weight="900"
    fill="#D980FA"
    text-anchor="middle"
    letter-spacing="10"
    opacity="0.95">SHAWAIZ</text>

  <!-- Thin underline -->
  <line x1="300" y1="392" x2="500" y2="392" stroke="#7B2FBE" stroke-width="0.8" opacity="0.6"/>

</svg>
